<svg xmlns="http://www.w3.org/2000/svg" width="68.53" height="100" viewBox="0 0 68.53 100">
  <title>roach</title>
  <g id="62f71217-8d55-4f3c-a09e-295713e9c9af" data-name="Draw Layer">
    <path d="M764.33,1038.53a37.21,37.21,0,0,0-1.67-8.19,24.89,24.89,0,0,0-1.72-4h0l.07-.08a.42.42,0,0,0,.06-.2,6,6,0,0,0,.08-1.21,7.7,7.7,0,0,0-.18-1.31,10.31,10.31,0,0,0-.92-2.49,10.71,10.71,0,0,0-1.51-2.19,8.55,8.55,0,0,0-1.93-1.64c-.19-.11-.38-.22-.57-.32v0a5.25,5.25,0,0,0-.39-2.25,6.2,6.2,0,0,0-.54-1,5.77,5.77,0,0,0-.73-.9,5.1,5.1,0,0,0-.88-.71,4.9,4.9,0,0,0-1-.48,4.21,4.21,0,0,0-1.09-.22h-.28a5.13,5.13,0,0,0-.88.08,4.92,4.92,0,0,0-.52.12.29.29,0,0,0-.16.12l-.45.19a4.2,4.2,0,0,0-.75.47,5.2,5.2,0,0,0-.7.64,5.88,5.88,0,0,0-1.49,3.36,5.08,5.08,0,0,0,0,.61l-.37.21c-.23.14-.46.3-.68.45a14.85,14.85,0,0,0-1.32,1,8.79,8.79,0,0,0-2,2.57.39.39,0,0,0,0,.26c-.14.29-.26.58-.37.88a7.69,7.69,0,0,0-.45,2.21,5.9,5.9,0,0,0,0,1,5.44,5.44,0,0,0,.25,1.12,4.82,4.82,0,0,0,.89,1.55,8.4,8.4,0,0,0-.36.81c-.15.36-.29.73-.43,1.1-.27.7-.52,1.4-.76,2.1q-.7,2.05-1.21,4.17a49.22,49.22,0,0,0-1.27,8.37,53.59,53.59,0,0,0,1.59,16.52,57,57,0,0,0,2.27,7.07q.35.88.72,1.75c.25.58.51,1.14.78,1.71.37.78.76,1.55,1.15,2.31a.38.38,0,0,0,0,.29,11,11,0,0,0,.58,1.2c.21.38.45.75.7,1.11a13.79,13.79,0,0,0,1.73,2,11.56,11.56,0,0,0,1,.84,7.23,7.23,0,0,0,1,.63,5.75,5.75,0,0,0,1.05.44,4,4,0,0,0,1.08.17,3.74,3.74,0,0,0,1-.13,4,4,0,0,0,1-.41,5.62,5.62,0,0,0,1-.71,7.4,7.4,0,0,0,.65-.67h0a.29.29,0,0,0,.22-.09c.1-.13.22-.25.33-.38l.32-.39c.23-.29.45-.58.66-.88.41-.57.79-1.16,1.16-1.76a33.89,33.89,0,0,0,2-3.75,46,46,0,0,0,2.77-8.14,64.6,64.6,0,0,0,1.44-8.41c.15-1.35.25-2.7.33-4.05s.15-2.7.19-4.06A66.78,66.78,0,0,0,764.33,1038.53Z" transform="translate(-716.82 -984.92)" fill="#fff"/>
  </g>
  <g id="90c60fa9-3aa8-4d83-a7cc-8b6739813d3c" data-name="Draw Layer">
    <path d="M772.36,1011.57h0v0h0Z" transform="translate(-716.82 -984.92)" fill="#fff" opacity="0.12"/>
    <path d="M731.88,1060.71v0Z" transform="translate(-716.82 -984.92)" fill="#fff" opacity="0.12"/>
    <circle cx="12.08" cy="86.61" r="0.08" fill="#fff" opacity="0.12"/>
    <polygon points="5.87 95.96 5.88 95.96 5.88 95.96 5.87 95.96" fill="#fff" opacity="0.12"/>
    <path d="M772.67,1011c0-.17,0-.34,0-.51q0-.54-.1-1.07a10.5,10.5,0,0,0-.19-1.06q-.06-.24-.13-.47l-.08-.22a2.48,2.48,0,0,0-.11-.27.23.23,0,0,0-.42.05,2.74,2.74,0,0,0-.06.42,3.18,3.18,0,0,0,0,.41,6.29,6.29,0,0,0,.15.93c.07.31.15.61.22.92s.14.6.18.91a4,4,0,0,1,0,.53.14.14,0,0,0-.08,0,2.09,2.09,0,0,0-.27.35l-.25.39-.49.76-1,1.51-.27.1-.4.17-.79.3-.83.35-.8.34c-.53.23-1.05.46-1.56.73a11.74,11.74,0,0,0-1.42.85l-.07,0h0a.21.21,0,0,0-.18.1c-.08.13-.15.26-.24.39l-.09.11h0l-.09,0h-.06a3.13,3.13,0,0,0-1.1.42,5.05,5.05,0,0,0-1,.75,7.17,7.17,0,0,0-.79,1c-.16.22-.31.45-.44.69l.09.16a11.43,11.43,0,0,1,.59,1.36,6,6,0,0,0,.59-.53,8.41,8.41,0,0,0,.58-.68c.37-.47.71-1,1.07-1.44.19-.24.39-.48.59-.7a5.88,5.88,0,0,1,.65-.6,3.8,3.8,0,0,1,.41-.27,5,5,0,0,1,.5-.24c.4-.17.82-.3,1.23-.46s1-.43,1.43-.67c.92-.48,1.82-1,2.76-1.44a.22.22,0,0,0,.1-.13.23.23,0,0,0,0-.14c.17-.25.32-.5.48-.75l.57-.87a12.79,12.79,0,0,0,1-1.83.15.15,0,0,0,0-.11h0a.22.22,0,0,0,0-.07A4.61,4.61,0,0,0,772.67,1011Z" transform="translate(-716.82 -984.92)" fill="#fff" opacity="0.12"/>
    <path d="M785.31,1034.26a.31.31,0,0,0-.11-.11.29.29,0,0,0-.15,0H785a1.83,1.83,0,0,0-.34.09,2.06,2.06,0,0,0-.36.18,5,5,0,0,0-.62.47c-.34.29-.64.63-1,.92h-.22l-.22.05-.22.09-.25.09-.5.15-.51.1-.56.05-.64,0c-.43,0-.85,0-1.28,0a21.29,21.29,0,0,1-2.24-.18.92.92,0,0,0,0-.13,1.11,1.11,0,0,0,0-.18,1,1,0,0,0-.07-.18,1,1,0,0,0-.18-.26,1.57,1.57,0,0,0-.26-.23,3,3,0,0,0-.56-.3l-.61-.25a6.29,6.29,0,0,1-.89-.51c-.37-.24-.73-.5-1.09-.77-.68-.53-1.34-1.09-2-1.64a20.84,20.84,0,0,0-1.73-1.3.18.18,0,0,0,0-.18,2.08,2.08,0,0,0-.18-.23,1.21,1.21,0,0,0-.25-.2,1.09,1.09,0,0,0-.54-.16h0a1,1,0,0,0-.23,0,1,1,0,0,0-.27.11,1.15,1.15,0,0,0-.29.25l-.13-.13a1.2,1.2,0,0,0-.23-.15,1.62,1.62,0,0,0-.59-.15h-.12a2.87,2.87,0,0,0-.44,0,3.75,3.75,0,0,0-.56.14,9.17,9.17,0,0,0-1.11.46c-.29.14-.57.28-.86.41q.41,1.29.72,2.6l0-.07.23-.08.5-.2c.32-.13.64-.26,1-.41l.41-.22a2.06,2.06,0,0,0,.37-.27,2.54,2.54,0,0,0,.28-.33l.23-.32a1.6,1.6,0,0,1,.21-.23,1.38,1.38,0,0,1,.24-.12l.19-.06h.06a1.31,1.31,0,0,1,.18.13l.33.23c.26.16.5.34.74.53.54.42,1,.88,1.55,1.33l.76.68.58.5c.3.27.57.57.85.85a12.79,12.79,0,0,0,1.06,1,4.28,4.28,0,0,0,1.22.72,1.84,1.84,0,0,0,.59.11,1.4,1.4,0,0,0,.62-.15h0a2.24,2.24,0,0,0,.71.34,5.35,5.35,0,0,0,.86.15,7.49,7.49,0,0,0,1.73,0c.3,0,.61-.09.91-.14l.87-.16,1.63-.36.32-.07h0l.1,0a3.56,3.56,0,0,0,.31-.2l.33-.23.62-.46c.22-.16.43-.33.64-.5l.29-.27a3.86,3.86,0,0,0,.27-.3.31.31,0,0,0,0-.37Z" transform="translate(-716.82 -984.92)" fill="#fff" opacity="0.12"/>
    <path d="M783.86,1082.87a.31.31,0,0,0-.09-.22.3.3,0,0,0-.22-.09h-.09l-.16,0H783a1.59,1.59,0,0,1-.31-.09,2.44,2.44,0,0,1-.45-.27c-.4-.32-.74-.71-1.12-1a1.34,1.34,0,0,0,0-.29,1.29,1.29,0,0,0-.07-.18.71.71,0,0,0-.1-.14,1.65,1.65,0,0,0-.23-.25,2.2,2.2,0,0,0-.36-.25c-.2-.11-.42-.2-.63-.3l0-.07a3,3,0,0,0-.53-.65,6.67,6.67,0,0,0-.67-.55c-.42-.32-.88-.6-1.32-.89a1.63,1.63,0,0,0-.09-.51,3.74,3.74,0,0,0-.25-.57,7.84,7.84,0,0,0-.78-1.16c-.31-.4-.65-.78-1-1.15s-.7-.73-1.06-1.08l-.81-.79-.63-.62-.08-.05.06-.15c0-.07,0-.15.05-.22a5.08,5.08,0,0,0,.08-.54,7.32,7.32,0,0,0,0-1,15.22,15.22,0,0,0-.26-2.14c-.25-1.38-.62-2.73-.86-4.11-.06-.34-.1-.68-.15-1-.22-1.65-.39-3.3-.49-5,0-.37-.05-.74-.06-1.1s0-.53,0-.79a5.89,5.89,0,0,0-.07-.86,2.23,2.23,0,0,0-.26-.76,1.47,1.47,0,0,0-.36-.41,1.67,1.67,0,0,0,.08-.18,1.18,1.18,0,0,0,0-.22,1.16,1.16,0,0,0,0-.39,1.71,1.71,0,0,0-.15-.4,2.45,2.45,0,0,0-.23-.36,5.17,5.17,0,0,0-.71-.76,11.1,11.1,0,0,0-.93-.73c-.64-.46-1.31-.87-2-1.26l-.85-.49-.6-.35-.1-.06a.18.18,0,0,0-.1,0q-.06,1.33-.14,2.67l0,.59c.75.34,1.47.73,2.2,1.11.37.2.74.39,1.12.57l.6.26.32.11.06,0a.28.28,0,0,0,0,0,35.7,35.7,0,0,0,.23,3.6c.13,1.2.31,2.4.47,3.6v0c.12.92.24,1.84.33,2.76s.13,1.77.2,2.65.16,1.81.32,2.7q.11.64.29,1.26c.06.22.13.43.21.65a3.81,3.81,0,0,0,.28.64.3.3,0,0,0,.33.14l.06,0,.09.14.29.42c.2.27.4.54.61.8.38.49.78,1,1.16,1.45.24.31.45.63.66,1s.45.7.69,1a5,5,0,0,0,1.63,1.58v0a1,1,0,0,0,.14.34,3,3,0,0,0,.26.35,6.91,6.91,0,0,0,.54.58,11.94,11.94,0,0,0,1.25,1.07c.21.16.42.3.64.45l.68.45.77.53.26.27.31.32.32.3c.12.11.25.2.37.29l.59.46.34.23.36.22a.27.27,0,0,0,.41-.24.29.29,0,0,0-.08-.19l0,0a2.29,2.29,0,0,1-.19-.35l.16,0A.32.32,0,0,0,783.86,1082.87Z" transform="translate(-716.82 -984.92)" fill="#fff" opacity="0.12"/>
    <path d="M767,1078.16a.22.22,0,0,0,0-.09.22.22,0,0,0-.27-.16,3.07,3.07,0,0,1-.57.13l-.27,0h-.11a7.18,7.18,0,0,1-1.73-.48,10.29,10.29,0,0,1-2.2-1.33,30.75,30.75,0,0,1-2.77-2.54.27.27,0,0,0-.19-.08h0q-.33.63-.69,1.24a27.93,27.93,0,0,0,2.49,1.83,16.87,16.87,0,0,0,1.57.9,10.76,10.76,0,0,0,1.66.68,6.18,6.18,0,0,0,1.54.27,4,4,0,0,0,.7,0l.12,0a5.05,5.05,0,0,0,.68-.05.17.17,0,0,0,.08-.29Z" transform="translate(-716.82 -984.92)" fill="#fff" opacity="0.12"/>
    <path d="M744.54,1074.11l-.62-1.22a.17.17,0,0,0-.07,0,15.4,15.4,0,0,1-2.49,2.45,12,12,0,0,1-2.55,1.51,9.31,9.31,0,0,1-2.29.63l-.57.06-.63,0a.21.21,0,0,0-.2.15.21.21,0,0,0,0,.16.2.2,0,0,0,.12.1h.09l-.52,0a.25.25,0,0,0-.22.38.24.24,0,0,0,.15.11,7.93,7.93,0,0,0,1.8,0,9.3,9.3,0,0,0,1.73-.31,10.6,10.6,0,0,0,1.63-.62,12.6,12.6,0,0,0,1.51-.85,17.78,17.78,0,0,0,3.07-2.57A.46.46,0,0,1,744.54,1074.11Z" transform="translate(-716.82 -984.92)" fill="#fff" opacity="0.12"/>
    <path d="M737.93,1048.1l-.1,0-1.27.64c-.49.25-1,.5-1.45.78a12.41,12.41,0,0,0-1.42,1,5.22,5.22,0,0,0-1.11,1.15,2.8,2.8,0,0,0-.27.5,2,2,0,0,0-.08.24,1.67,1.67,0,0,0,0,.27h0a.22.22,0,0,0,0,.18,33.55,33.55,0,0,0-1.1,4c-.31,1.44-.54,2.9-.71,4.36s-.31,2.93-.43,4.4c-.06.73-.11,1.46-.16,2.19s-.1,1.44-.15,2.16q0,.36,0,.73c0,.24,0,.48,0,.72a.21.21,0,0,0,0,.1l-.46.61h0c-.58.75-1.17,1.49-1.76,2.23l0,0-.3.39c-.35.45-.69.9-1,1.36l-.48.69-.22.35-.07.11c-.37.3-.73.61-1.08.92s-.88.79-1.31,1.19-.86.82-1.29,1.21-.89.76-1.34,1.13l-.21.17c-.29.22-.59.44-.9.64a7,7,0,0,1-.92.52l-.08,0a.2.2,0,0,0,0,.39l.09,0,.08,0-.35.38-.3.34-.15.19a.66.66,0,0,0-.13.23.19.19,0,0,0,.08.21.18.18,0,0,0,.18,0h0a.51.51,0,0,0,.13-.1l.21-.14.34-.22.67-.46c.43-.32.84-.65,1.25-1,.82-.7,1.6-1.43,2.46-2.09l0,0,0,0h0l0,0a.15.15,0,0,0,.06-.08.14.14,0,0,0,0-.1h0a3.31,3.31,0,0,0,.42-.19,3.17,3.17,0,0,0,.38-.26,9.31,9.31,0,0,0,.76-.66c.47-.44.91-.91,1.41-1.31a.19.19,0,0,0,.06-.14.2.2,0,0,0-.16-.19l.32-.37.67-.78,1.34-1.56c.9-1,1.79-2.09,2.66-3.16l.18-.22a.25.25,0,0,0,.07-.17.24.24,0,0,0-.07-.17l0,0,.07-.16q.13-.3.23-.62a10.88,10.88,0,0,0,.35-1.35,25.94,25.94,0,0,0,.37-3c.06-.8.1-1.6.16-2.4s.1-1.44.2-2.16c0-.25.07-.5.1-.75s.06-.57.08-.85c0-.58.07-1.17.1-1.75s.06-1.14.09-1.71.08-1.15.16-1.72q.08-.6.2-1.18a2.23,2.23,0,0,0,.32-.11l.35-.16c.22-.11.43-.22.64-.34l1.32-.76c.8-.47,1.61-.95,2.45-1.35Q737.93,1049.59,737.93,1048.1Z" transform="translate(-716.82 -984.92)" fill="#fff" opacity="0.12"/>
    <path d="M739.75,1034.43l.05,0q.32-1.13.7-2.24.19-.57.4-1.14a4.69,4.69,0,0,0-1-.74,6.75,6.75,0,0,0-.8-.37,6.27,6.27,0,0,0-.8-.25,7,7,0,0,0-.84-.15,6.06,6.06,0,0,0-.72,0h-.1a5.07,5.07,0,0,0-.83.09l-.34.08-.23.09,0,0a1.41,1.41,0,0,0-.76-.21,1.71,1.71,0,0,0-.65.13,2.89,2.89,0,0,0-.38.19l-.31.21a7.94,7.94,0,0,0-.65.56c-.38.36-.72.75-1.06,1.14a6.1,6.1,0,0,1-.79.79c-.37.28-.75.53-1.14.78s-1,.68-1.53,1a11.25,11.25,0,0,0-1.31,1,3.1,3.1,0,0,0-.43.5,1.12,1.12,0,0,0-.15.32l-.05,0a.25.25,0,0,0-.17,0,5.78,5.78,0,0,1-1.08.25,8.62,8.62,0,0,1-2.19,0,9.82,9.82,0,0,1-2.38-.62l-.39-.18a.34.34,0,0,0-.16,0h-.09l-.19-.11-.5-.31c-.35-.23-.68-.48-1-.73a.28.28,0,0,0-.14,0,.28.28,0,0,0-.2.08.28.28,0,0,0-.06.1h-.1l-.16,0h0a.35.35,0,0,0-.3.19.29.29,0,0,0,0,.22.28.28,0,0,0,.13.17l.38.22.38.23.7.43.34.19a2.53,2.53,0,0,0,.41.17q.39.12.78.2c.49.11,1,.23,1.46.33s1.1.21,1.66.28a16.06,16.06,0,0,0,2.29.16,9.56,9.56,0,0,0,1-.07,5.24,5.24,0,0,0,1-.22.3.3,0,0,0,.17-.13.29.29,0,0,0,0-.13,9.68,9.68,0,0,0,1.1-.77c.43-.34.85-.7,1.26-1.07.81-.72,1.6-1.45,2.45-2.12a11.31,11.31,0,0,1,2.38-1.44l.39-.15,0,.11a2.78,2.78,0,0,0,.17.35,2.72,2.72,0,0,0,.44.55,5.22,5.22,0,0,0,.58.47,7.15,7.15,0,0,0,.64.41,22.38,22.38,0,0,0,2.52,1.17Z" transform="translate(-716.82 -984.92)" fill="#fff" opacity="0.12"/>
    <path d="M738.27,1019.06l.39.43.8.84c.54.58,1.05,1.18,1.54,1.8l.06,0a.28.28,0,0,0,.06.09.29.29,0,0,0,.18.08l0-.08c.11-.3.23-.59.37-.88a.39.39,0,0,1,0-.26l.06-.11-.39-.42-.73-.75a17.93,17.93,0,0,1-1.38-1.53,8.24,8.24,0,0,1-.59-.88.21.21,0,0,0-.15-.1l-.1-.12a3.3,3.3,0,0,0-.53-.48,6.11,6.11,0,0,0-1.29-.7,26,26,0,0,0-2.9-.93,15.74,15.74,0,0,1-1.68-.56,6.31,6.31,0,0,1-.67-.34.28.28,0,0,0-.14,0l-.12,0-.33-.58a12.18,12.18,0,0,1-.66-1.27,5.59,5.59,0,0,1-.21-.58,4.67,4.67,0,0,1-.13-.62c0-.07,0-.14,0-.21.06-.49.12-1,.18-1.47q0-.31.09-.61c0-.24.09-.48.12-.72h0a3.14,3.14,0,0,0,.06-.53.32.32,0,0,0-.23-.31h-.08a.32.32,0,0,0-.16,0,.34.34,0,0,0-.15.19,2.49,2.49,0,0,0-.12.49c0,.19-.06.38-.08.57q-.08.55-.14,1.1c-.09.72-.17,1.44-.26,2.15a.32.32,0,0,0,.1.24.33.33,0,0,0,.47,0v0h0a.18.18,0,0,0-.06.25c.15.28.32.55.48.83l.48.83,1,1.71a.16.16,0,0,0,.18.08,4.42,4.42,0,0,0,.48.39,6.92,6.92,0,0,0,.65.41,14.19,14.19,0,0,0,1.54.74c.53.22,1.07.42,1.61.61l1.5.53.55.19A4.78,4.78,0,0,0,738.27,1019.06Z" transform="translate(-716.82 -984.92)" fill="#fff" opacity="0.12"/>
    <path d="M746.12,1015.64l0,.06a.27.27,0,0,0,.08.08c0-.15.06-.3.1-.45a6.07,6.07,0,0,1,.5-1.27c-.1-.19-.21-.38-.33-.57l-.21-.32-.23-.34a.21.21,0,0,0-.18-.1l-.1,0a.22.22,0,0,0-.09.12,2.5,2.5,0,0,0,0,1.39A8.51,8.51,0,0,0,746.12,1015.64Z" transform="translate(-716.82 -984.92)" fill="#fff" opacity="0.12"/>
    <path d="M741.79,1003.73l0,.05c1.91,2.48,3.89,4.9,6,7.25l0,0a.25.25,0,0,0,.17.08h0a.28.28,0,0,0,0,.21c.07.34.16.67.24,1l.15-.12a4.59,4.59,0,0,1,.41-.28,4.87,4.87,0,0,0-.31-.81.25.25,0,0,0-.2-.13.28.28,0,0,0,0-.15.29.29,0,0,0-.08-.2q-1.78-2-3.47-4.1-.84-1-1.67-2.09l-.81-1,0,0c-2.17-2.81-4.25-5.68-6.3-8.58s-4.08-5.84-6.12-8.76l-.71-1a.29.29,0,0,0-.16-.13h-.07a.27.27,0,0,0-.24.41l1.53,2.2,1.53,2.2q1.52,2.19,3.05,4.38c2,2.9,4.11,5.78,6.26,8.61Z" transform="translate(-716.82 -984.92)" fill="#fff" opacity="0.12"/>
    <path d="M774.11,986.2a.27.27,0,0,0-.19-.08.29.29,0,0,0-.2.08c-.37.34-.71.7-1.05,1.06l-1,1.09q-1,1.09-2,2.21-2,2.23-3.91,4.52-2.9,3.46-5.66,7l0,0-1.76,2.29q-2.46,3.25-4.84,6.55a.24.24,0,0,0,0,.07l0,0a.26.26,0,0,0-.07.17c0,.16,0,.33,0,.49v0l.27.16.17.11c0-.09,0-.18,0-.28l0-.27h.1a.38.38,0,0,0,.21-.16q1.75-2.43,3.54-4.84l1.8-2.39.91-1.19.22-.28.07-.1.05-.07.11-.14.48-.61.92-1.18q.92-1.17,1.86-2.33,1.88-2.32,3.82-4.59,1.54-1.79,3.11-3.55l1.57-1.73.81-.88c.27-.29.55-.59.8-.89a.29.29,0,0,0,.08-.19A.27.27,0,0,0,774.11,986.2Z" transform="translate(-716.82 -984.92)" fill="#fff" opacity="0.12"/>
    <path d="M755.65,1014.63a5.29,5.29,0,0,1,.28.91h0a3,3,0,0,0,.25-.62,3.38,3.38,0,0,0,.1-.68,3.63,3.63,0,0,0,0-.66q0-.18-.06-.35c0-.12-.06-.24-.09-.36a.27.27,0,0,0-.19-.19h-.07a.27.27,0,0,0-.23.13l-.18.33-.18.34-.1.21A6.3,6.3,0,0,1,755.65,1014.63Z" transform="translate(-716.82 -984.92)" fill="#fff" opacity="0.12"/>
  </g>
</svg>
